<svg width="13" height="10" viewBox="0 0 13 10" fill="none" xmlns="http://www.w3.org/2000/svg">
<path d="M6.49716 7.729C5.87583 7.729 5.37036 8.23844 5.37036 8.8643C5.37036 9.49036 5.87583 10 6.49716 10C7.1187 10 7.62417 9.49036 7.62417 8.8643C7.62417 8.23844 7.1186 7.729 6.49716 7.729Z" fill="white"/>
<path d="M9.24633 6.18203C8.51273 5.44069 7.53624 5.03223 6.4971 5.03223C5.46196 5.03223 4.48813 5.43799 3.75473 6.17467C3.45852 6.47272 3.45801 6.95832 3.7535 7.25689C3.89704 7.40223 4.08816 7.48206 4.29158 7.48206C4.49407 7.48206 4.68447 7.40265 4.82781 7.25854C5.27412 6.81007 5.86695 6.56302 6.4971 6.56302C7.1296 6.56302 7.72407 6.81162 8.17069 7.26279C8.31424 7.40773 8.50525 7.48776 8.70846 7.48776C8.91116 7.48776 9.10146 7.40835 9.2449 7.26425C9.54152 6.96617 9.54203 6.48081 9.24633 6.18203Z" fill="white"/>
<path d="M12.7781 2.62304C11.1009 0.931373 8.87017 0 6.49722 0C4.12744 0 1.89896 0.929196 0.222285 2.61684C-0.073924 2.91489 -0.0741291 3.40049 0.221875 3.69906C0.365314 3.84368 0.556122 3.92319 0.759132 3.92319C0.962038 3.92319 1.15264 3.84399 1.29608 3.69947C2.68587 2.30075 4.53295 1.53028 6.49722 1.53028C8.46436 1.53028 10.3133 2.30231 11.7034 3.70476C11.8468 3.84948 12.0379 3.92931 12.2408 3.92931C12.4436 3.92931 12.6343 3.84969 12.7776 3.70538C13.0739 3.40709 13.0742 2.92132 12.7781 2.62304Z" fill="white"/>
<path d="M10.9676 4.4471C9.77372 3.24277 8.18615 2.57959 6.49727 2.57959C4.81148 2.57959 3.22626 3.24069 2.03343 4.44078C1.88978 4.58519 1.81073 4.77729 1.81042 4.98184C1.81042 5.18617 1.88917 5.37848 2.03261 5.5231C2.17605 5.66782 2.36696 5.74765 2.56997 5.74765C2.77267 5.74765 2.96327 5.66803 3.10692 5.52393C4.01308 4.61235 5.21719 4.11018 6.49727 4.11018C7.78002 4.11018 8.98578 4.61412 9.89255 5.5288C10.0362 5.67373 10.227 5.75356 10.4301 5.75356C10.6329 5.75356 10.8236 5.67394 10.9669 5.52963C11.1103 5.38522 11.1896 5.19312 11.1897 4.98857C11.1899 4.78403 11.1109 4.59193 10.9676 4.4471Z" fill="white"/>
</svg>
