<svg width="14" height="13" viewBox="0 0 14 13" fill="none" xmlns="http://www.w3.org/2000/svg">
<path d="M6.93872 0C5.80946 0 4.89062 0.727347 4.89062 1.62127V2.11044H5.94998V1.62127C5.94998 1.18969 6.39366 0.838582 6.93872 0.838582C7.48393 0.838582 7.92765 1.18966 7.92765 1.62127V2.11044H8.987V1.62127C8.987 0.727347 8.06801 0 6.93872 0Z" fill="white"/>
<path d="M8.38659 10.2168C8.38659 10.8411 7.74498 11.349 6.95644 11.349H6.92114C6.13263 11.349 5.49099 10.8411 5.49099 10.2168H4.43164C4.43164 11.3036 5.5484 12.1876 6.92114 12.1876H6.95644C8.32919 12.1876 9.44594 11.3036 9.44594 10.2168H8.38659Z" fill="white"/>
<path d="M13.7934 10.0599L12.2886 8.20675V5.82809C12.2886 3.46983 9.88857 1.55127 6.93879 1.55127C3.98882 1.55127 1.58902 3.46983 1.58902 5.82809V8.20675L0.0842074 10.0598C-0.0206782 10.1887 -0.0280755 10.3528 0.0647819 10.4874C0.157639 10.622 0.335806 10.7059 0.52967 10.7059H13.3479C13.5418 10.7059 13.7199 10.622 13.8126 10.4876C13.9056 10.353 13.8983 10.1889 13.7934 10.0599ZM1.49983 9.8673L2.56414 8.55659C2.61905 8.48909 2.64837 8.41025 2.64837 8.32989V5.82809C2.64837 3.93231 4.57306 2.38988 6.93879 2.38988C9.3047 2.38988 11.2292 3.93233 11.2292 5.82809V8.32989C11.2292 8.41025 11.2583 8.48894 11.3132 8.55659L12.3776 9.8673H1.49983Z" fill="white"/>
</svg>
