<svg width="20" height="14" viewBox="0 0 20 14" fill="none" xmlns="http://www.w3.org/2000/svg">
<path d="M9.9 8C11.55 8 13.05 8.67 14.14 9.76L12.73 11.17C12 10.45 11 10 9.9 10C8.8 10 7.8 10.45 7.07 11.17L5.66 9.76C6.75 8.67 8.25 8 9.9 8ZM2.83 6.93C4.72 5.04 7.23 4 9.9 4C12.57 4 15.08 5.04 16.97 6.93L15.56 8.34C14.05 6.83 12.04 6 9.9 6C7.76 6 5.75 6.83 4.24 8.34L2.83 6.93ZM15.35 1.1C17.02 1.8 18.51 2.82 19.8 4.1L18.39 5.51C16.12 3.25 13.11 2 9.9 2C6.69 2 3.68 3.25 1.41 5.51L0 4.1C1.29 2.82 2.78 1.8 4.45 1.1C6.18 0.369998 8.01 0 9.9 0C11.79 0 13.62 0.369998 15.35 1.1ZM8.9 13C8.9 12.45 9.35 12 9.9 12C10.45 12 10.9 12.45 10.9 13C10.9 13.55 10.45 14 9.9 14C9.35 14 8.9 13.55 8.9 13Z" fill="#EEEEEE"/>
</svg>
